#N canvas 563 147 650 467 10;
#X obj 124 243 random 5000;
#X obj 125 276 + 1;
#X obj 124 209 metro 0;
#X obj 101 17 tgl 15 0 empty empty empty 17 7 0 10 -262144 -1 -1 0
1;
#X obj 126 309 print;
#X obj 140 180 hsl 128 15 0 127 0 0 empty empty empty -2 -8 0 10 -262144
-1 -1 8400 1;
#X obj 72 312 osc~;
#X obj 109 366 dac~;
#X obj 141 151 random 127;
#X obj 40 158 metro 300;
#X msg 179 84 \; pd dsp \$1;
#X connect 0 0 1 0;
#X connect 1 0 4 0;
#X connect 1 0 6 0;
#X connect 2 0 0 0;
#X connect 3 0 2 0;
#X connect 3 0 9 0;
#X connect 3 0 10 0;
#X connect 5 0 2 1;
#X connect 6 0 7 0;
#X connect 6 0 7 1;
#X connect 8 0 5 0;
#X connect 9 0 8 0;
