#N canvas 60 26 1366 651 10;
#X obj 445 334 *~ 2;
#X obj 500 334 *~ 3;
#X obj 556 334 *~ 4;
#X obj 604 334 *~ 5;
#X obj 445 360 osc~;
#X obj 556 360 osc~;
#X obj 500 360 osc~;
#X obj 604 360 osc~;
#X obj 393 360 osc~;
#X floatatom 843 290 5 0 0 0 - - -, f 5;
#X obj 843 339 snapshot~;
#X obj 797 232 metro 10;
#X obj 843 313 osc~;
#X obj 843 365 + 1;
#X obj 572 501 *~;
#X obj 572 527 throw~ signal;
#X obj 105 315 catch~ signal;
#X floatatom 394 259 5 0 0 0 - - -, f 5;
#X obj 659 501 *~;
#X floatatom 998 290 5 0 0 0 - - -, f 5;
#X obj 998 339 snapshot~;
#X obj 998 313 osc~;
#X obj 998 365 + 1;
#X floatatom 1072 290 5 0 0 0 - - -, f 5;
#X obj 1072 339 snapshot~;
#X obj 1072 313 osc~;
#X obj 1072 365 + 1;
#X floatatom 1141 290 5 0 0 0 - - -, f 5;
#X obj 1141 339 snapshot~;
#X obj 1141 313 osc~;
#X obj 1141 365 + 1;
#X obj 706 501 *~;
#X obj 756 501 *~;
#X obj 801 501 *~;
#X obj 908 232 metro 10;
#X obj 1010 232 metro 10;
#X obj 1124 232 metro 10;
#X obj 527 118 tgl 15 0 empty empty empty 17 7 0 10 -262144 -1 -1 0
1;
#X obj 84 527 dac~;
#X obj 47 86 loadbang;
#X msg 47 112 0;
#X text 310 359 Fundamental;
#X obj 669 60 r frequency;
#X obj 854 60 bng 15 250 50 0 empty empty empty 17 7 0 10 -262144 -1
-1;
#X obj 854 84 440;
#X obj 854 110 send frequency;
#X obj 84 501 *~ 1;
#X obj 180 501 r loudness;
#X obj 375 40 r loudness;
#X obj 375 66 > 0;
#X obj 493 409 *~ 2.58375;
#X obj 571 429 *~ 2.676;
#X obj 577 397 *~ 3.39;
#X obj 641 412 *~ 3.52333;
#X connect 0 0 4 0;
#X connect 1 0 6 0;
#X connect 2 0 5 0;
#X connect 3 0 7 0;
#X connect 4 0 50 0;
#X connect 5 0 52 0;
#X connect 6 0 51 0;
#X connect 7 0 53 0;
#X connect 8 0 14 0;
#X connect 9 0 12 0;
#X connect 10 0 13 0;
#X connect 11 0 10 0;
#X connect 12 0 10 0;
#X connect 13 0 18 1;
#X connect 14 0 15 0;
#X connect 16 0 46 0;
#X connect 18 0 15 0;
#X connect 19 0 21 0;
#X connect 20 0 22 0;
#X connect 21 0 20 0;
#X connect 22 0 31 1;
#X connect 23 0 25 0;
#X connect 24 0 26 0;
#X connect 25 0 24 0;
#X connect 26 0 32 1;
#X connect 27 0 29 0;
#X connect 28 0 30 0;
#X connect 29 0 28 0;
#X connect 30 0 33 1;
#X connect 31 0 15 0;
#X connect 32 0 15 0;
#X connect 33 0 15 0;
#X connect 34 0 20 0;
#X connect 35 0 24 0;
#X connect 36 0 28 0;
#X connect 37 0 11 0;
#X connect 37 0 34 0;
#X connect 37 0 35 0;
#X connect 37 0 36 0;
#X connect 39 0 40 0;
#X connect 40 0 46 1;
#X connect 42 0 8 0;
#X connect 42 0 0 0;
#X connect 42 0 1 0;
#X connect 42 0 3 0;
#X connect 42 0 2 0;
#X connect 42 0 17 0;
#X connect 43 0 44 0;
#X connect 44 0 45 0;
#X connect 46 0 38 0;
#X connect 46 0 38 1;
#X connect 47 0 46 1;
#X connect 48 0 49 0;
#X connect 49 0 37 0;
#X connect 50 0 18 0;
#X connect 51 0 31 0;
#X connect 52 0 32 0;
#X connect 53 0 33 0;
