#N canvas 67 54 1366 651 10;
#X obj 58 36 tgl 15 0 empty empty empty 17 7 0 10 -262144 -1 -1 0 1
;
#X obj 146 44 r test;
#X obj 153 165 *~ 2;
#X obj 235 163 *~ 3;
#X obj 316 161 *~ 4;
#X obj 402 160 *~ 5;
#X obj 521 479 dac~;
#X obj 181 223 osc~;
#X obj 321 210 osc~;
#X obj 246 218 osc~;
#X obj 413 221 osc~;
#X obj 54 225 osc~;
#X connect 1 0 2 0;
#X connect 1 0 11 0;
#X connect 1 0 3 0;
#X connect 1 0 4 0;
#X connect 1 0 5 0;
#X connect 2 0 7 0;
#X connect 3 0 9 0;
#X connect 4 0 8 0;
#X connect 5 0 10 0;
